M48
;DRILL file {KiCad 4.0.7-e2-6376~58~ubuntu16.04.1} date Sun Apr 22 16:59:16 2018
;FORMAT={-:-/ absolute / inch / decimal}
FMAT,2
INCH,TZ
T1C0.012
T2C0.016
T3C0.031
T4C0.035
T5C0.040
T6C0.051
T7C0.169
%
G90
G05
M72
T1
X4.02Y-4.4882
X4.1Y-2.94
X4.1Y-3.94
X4.12Y-4.1
X4.16Y-2.62
X4.18Y-2.3
X4.26Y-3.9
X4.26Y-4.74
X4.28Y-3.26
X4.48Y-4.32
X4.62Y-5.
X4.62Y-5.42
X4.74Y-4.82
X4.78Y-3.8
X4.84Y-4.04
X4.86Y-2.92
X4.88Y-4.36
X4.88Y-4.54
X4.9Y-3.86
X4.96Y-2.18
X5.04Y-3.14
X5.06Y-5.1
X5.06Y-5.44
X5.12Y-4.04
X5.22Y-3.24
X5.22Y-4.78
X5.26Y-2.16
X5.26Y-2.44
X5.26Y-5.38
X5.46Y-2.54
X5.5Y-2.2
X5.5Y-3.18
X5.5Y-4.44
X5.56Y-3.36
X5.66Y-5.26
X5.68Y-4.98
X5.78Y-2.2
X5.9Y-2.44
X5.92Y-2.58
X6.1Y-3.82
X6.16Y-2.14
X6.2Y-2.96
X6.28Y-3.34
X6.46Y-2.12
X6.46Y-4.88
X6.48Y-2.96
X6.48Y-3.5
X6.54Y-2.44
X6.62Y-2.3
X6.64Y-4.5
X6.66Y-5.28
X6.68Y-4.1
X6.68Y-4.74
X6.9Y-3.58
X6.94Y-2.58
X6.96Y-4.74
X6.96Y-5.
X6.96Y-5.42
X6.98Y-4.16
X7.Y-2.12
X7.04Y-3.48
X7.1Y-5.14
X7.34Y-4.2
X7.34Y-4.46
X7.6Y-2.44
X7.6Y-3.92
X7.66Y-3.26
X7.74Y-2.3
X7.82Y-4.5
X7.8346Y-3.937
T2
X4.2679Y-3.3711
X4.3021Y-4.0818
X4.3962Y-4.7013
X4.503Y-3.4413
X4.503Y-3.5092
X4.571Y-3.4413
X4.571Y-3.5092
X4.6257Y-4.8463
X4.6267Y-3.6751
X4.6477Y-4.6298
X4.6613Y-3.2644
X4.9878Y-3.2713
X5.1424Y-2.8216
X5.247Y-3.5927
X5.4784Y-3.6908
X5.6724Y-4.0611
X5.6933Y-4.2682
X5.7975Y-5.2694
X5.9418Y-4.279
X5.9937Y-3.2623
X6.027Y-5.4144
X6.043Y-4.4038
X6.049Y-5.1979
X6.1Y-3.35
X6.1522Y-4.1842
X6.2238Y-4.4491
X6.4995Y-2.6661
X6.9706Y-4.6133
X6.9953Y-2.8181
X7.1352Y-2.9635
X7.1858Y-2.9635
X7.1858Y-2.9635
X7.2001Y-4.7583
X7.2221Y-4.5418
X7.2365Y-2.8621
X7.2365Y-2.9128
X7.2365Y-2.9128
X7.2365Y-2.9635
X7.2365Y-3.0142
X7.2872Y-3.0142
X7.375Y-3.4665
X7.3772Y-3.1204
X7.5434Y-2.5131
X7.6526Y-3.4702
T3
X4.736Y-5.2164
X4.9281Y-5.2164
X6.3204Y-5.2164
X6.5125Y-5.2164
X7.4963Y-4.6246
X7.6884Y-4.6246
T4
X4.0779Y-3.3111
X4.0779Y-3.4111
X4.0779Y-3.5111
X4.0779Y-3.6111
X4.08Y-3.71
X4.08Y-3.81
X4.1137Y-4.3247
X4.1779Y-3.3111
X4.1779Y-3.4111
X4.1779Y-3.5111
X4.1779Y-3.6111
X4.1779Y-3.71
X4.1779Y-3.81
X4.2137Y-4.3247
X4.2779Y-3.0111
X4.2779Y-3.1111
X4.2779Y-3.8111
X4.3137Y-4.3247
X4.3762Y-4.5013
X4.3779Y-3.0111
X4.3779Y-3.1111
X4.3779Y-3.8111
X4.3779Y-3.9111
X4.426Y-2.3434
X4.426Y-2.4434
X4.426Y-2.5434
X4.426Y-2.6434
X4.4762Y-4.5013
X4.4779Y-3.0111
X4.4779Y-3.1111
X4.4779Y-3.8111
X4.4779Y-3.9111
X4.5762Y-4.5013
X4.5779Y-3.0111
X4.5779Y-3.1111
X4.5779Y-3.8111
X4.5779Y-3.9111
X4.6762Y-4.5013
X4.6779Y-3.0111
X4.6779Y-3.1111
X4.6779Y-3.8111
X4.6779Y-3.9111
X4.7431Y-5.0194
X4.7779Y-3.2111
X4.7779Y-3.3111
X4.7779Y-3.4111
X4.7779Y-3.5111
X4.7779Y-3.6111
X4.7779Y-3.7111
X4.8431Y-5.0194
X4.8779Y-3.2111
X4.8779Y-3.3111
X4.8779Y-3.4111
X4.8779Y-3.5111
X4.8779Y-3.6111
X4.9431Y-5.0194
X5.126Y-2.2934
X5.126Y-2.3934
X5.126Y-2.4934
X5.126Y-2.5934
X5.126Y-2.6934
X5.25Y-3.8
X5.25Y-3.9
X5.25Y-4.
X5.25Y-4.1
X5.25Y-4.2
X5.25Y-4.3
X5.25Y-4.4
X5.25Y-4.5
X5.25Y-4.6
X5.3472Y-2.746
X5.3472Y-2.846
X5.3472Y-2.946
X5.3472Y-3.046
X5.35Y-3.5
X5.35Y-3.6
X5.35Y-3.8
X5.35Y-3.9
X5.35Y-4.
X5.35Y-4.1
X5.35Y-4.2
X5.35Y-4.3
X5.35Y-4.4
X5.35Y-4.5
X5.35Y-4.6
X5.3636Y-5.082
X5.45Y-3.5
X5.45Y-3.6
X5.4636Y-5.082
X5.5Y-4.65
X5.5Y-4.75
X5.55Y-3.5
X5.55Y-3.6
X5.5636Y-5.082
X5.6Y-4.65
X5.6Y-4.75
X5.65Y-3.5
X5.65Y-3.6
X5.7Y-4.65
X5.7Y-4.75
X5.75Y-3.5
X5.75Y-3.6
X5.7775Y-5.0694
X5.8Y-4.65
X5.8Y-4.75
X5.85Y-3.5
X5.85Y-3.6
X5.8775Y-5.0694
X5.9Y-4.65
X5.9Y-4.75
X5.95Y-3.5
X5.95Y-3.6
X5.9775Y-5.0694
X6.Y-4.65
X6.Y-4.75
X6.05Y-3.5
X6.05Y-3.6
X6.0775Y-5.0694
X6.0972Y-2.696
X6.0972Y-2.796
X6.0972Y-2.896
X6.0972Y-2.996
X6.0972Y-3.096
X6.1Y-4.65
X6.1Y-4.75
X6.15Y-3.5
X6.15Y-3.6
X6.2Y-4.65
X6.2Y-4.75
X6.25Y-3.5
X6.25Y-3.6
X6.3Y-4.65
X6.3Y-4.75
X6.3275Y-5.0194
X6.4Y-3.65
X6.4Y-3.75
X6.4Y-3.85
X6.4Y-3.95
X6.4Y-4.05
X6.4Y-4.15
X6.4Y-4.25
X6.4Y-4.35
X6.4Y-4.45
X6.4275Y-5.0194
X6.5Y-3.65
X6.5Y-3.75
X6.5Y-3.85
X6.5Y-3.95
X6.5Y-4.05
X6.5Y-4.15
X6.5Y-4.25
X6.5Y-4.35
X6.5Y-4.45
X6.5275Y-5.0194
X6.6885Y-2.6121
X6.6886Y-2.7121
X6.6886Y-2.8121
X6.6886Y-2.9121
X6.6886Y-3.0121
X6.6886Y-3.1121
X6.6886Y-3.2121
X6.6919Y-4.8578
X6.7886Y-2.6121
X6.7886Y-2.7121
X6.7886Y-2.8121
X6.7886Y-2.9121
X6.7886Y-3.0121
X6.7886Y-3.1121
X6.7886Y-3.2121
X6.7919Y-4.8578
X6.839Y-3.7294
X6.839Y-3.8294
X6.839Y-3.9294
X6.839Y-4.0294
X6.8919Y-4.8578
X6.8997Y-2.316
X6.8997Y-2.416
X6.9386Y-3.2621
X6.9386Y-3.3621
X6.9506Y-4.4133
X6.9997Y-2.316
X6.9997Y-2.416
X7.0372Y-3.2621
X7.0372Y-3.3621
X7.0506Y-4.4133
X7.0997Y-2.316
X7.0997Y-2.416
X7.1386Y-3.2621
X7.1386Y-3.3621
X7.1506Y-4.4133
X7.1997Y-2.316
X7.1997Y-2.416
X7.2386Y-3.2621
X7.2386Y-3.3621
X7.2506Y-4.4133
X7.2997Y-2.316
X7.2997Y-2.416
X7.3386Y-3.2621
X7.3386Y-3.3621
X7.3997Y-2.316
X7.3997Y-2.416
X7.4372Y-3.2621
X7.4386Y-3.3621
X7.489Y-3.6794
X7.489Y-3.7794
X7.489Y-3.8794
X7.489Y-3.9794
X7.489Y-4.0794
X7.4997Y-2.316
X7.4997Y-2.416
X7.5034Y-4.4276
X7.5372Y-3.3621
X7.5386Y-3.2621
X7.6034Y-4.4276
X7.6252Y-2.5409
X7.6252Y-2.6409
X7.6252Y-2.7409
X7.6252Y-2.8402
X7.6252Y-2.9409
X7.6252Y-3.0402
X7.6252Y-3.1402
X7.7034Y-4.4276
X7.7252Y-2.5409
X7.7252Y-2.6402
X7.7252Y-2.7402
X7.7252Y-2.8402
X7.7252Y-2.9409
X7.7252Y-3.0402
X7.7252Y-3.1402
X7.7252Y-3.2402
T5
X4.7925Y-2.3008
X4.7925Y-2.4008
X4.7925Y-2.5008
X4.7925Y-2.6008
X4.7925Y-2.7008
X4.8925Y-2.3008
X4.8925Y-2.4008
X4.8925Y-2.5008
X4.8925Y-2.6008
X4.8925Y-2.7008
X5.7472Y-2.696
X5.7472Y-2.796
X5.7472Y-2.896
X5.7472Y-2.996
X5.7472Y-3.096
X5.8472Y-2.696
X5.8472Y-2.796
X5.8472Y-2.896
X5.8472Y-2.996
X5.8472Y-3.096
X7.189Y-3.6794
X7.189Y-3.7794
X7.189Y-3.8794
X7.189Y-3.9794
X7.189Y-4.0794
X7.289Y-3.6794
X7.289Y-3.7794
X7.289Y-3.8794
X7.289Y-3.9794
X7.289Y-4.0794
T6
X4.0157Y-4.5669
X4.0157Y-4.7244
X6.1417Y-5.4331
X6.2992Y-5.4331
X7.7953Y-4.0945
X7.7953Y-4.252
T7
X4.2127Y-1.8504
X4.2132Y-5.2362
X7.598Y-5.2362
X7.5983Y-1.8501
T0
M30
