G04 #@! TF.FileFunction,Soldermask,Top*
%FSLAX46Y46*%
G04 Gerber Fmt 4.6, Leading zero omitted, Abs format (unit mm)*
G04 Created by KiCad (PCBNEW 4.0.7-e2-6376~58~ubuntu16.04.1) date Sun Apr 22 16:59:19 2018*
%MOMM*%
%LPD*%
G01*
G04 APERTURE LIST*
%ADD10C,0.100000*%
%ADD11C,3.000000*%
%ADD12C,7.900000*%
%ADD13R,1.200000X1.300000*%
%ADD14R,1.900000X1.650000*%
%ADD15R,0.900000X1.300000*%
%ADD16R,1.600000X1.150000*%
%ADD17R,1.900000X1.700000*%
%ADD18C,2.200000*%
%ADD19C,1.900000*%
%ADD20R,2.200000X2.500000*%
%ADD21R,1.000000X2.400000*%
%ADD22R,1.670000X1.370000*%
%ADD23R,1.370000X1.670000*%
%ADD24R,1.150000X1.600000*%
%ADD25C,2.440000*%
%ADD26R,1.100000X0.650000*%
%ADD27R,0.650000X1.100000*%
%ADD28R,1.687500X1.687500*%
%ADD29R,2.125000X2.125000*%
%ADD30R,1.400000X0.650000*%
%ADD31R,0.650000X1.400000*%
G04 APERTURE END LIST*
D10*
D11*
X198000000Y-104000000D03*
X160000000Y-138000000D03*
X102000000Y-116000000D03*
X198000000Y-108000000D03*
X156000000Y-138000000D03*
D12*
X192989200Y-132999480D03*
X107015280Y-132999480D03*
X192996820Y-46992540D03*
D13*
X180219640Y-49108360D03*
X182319640Y-49108360D03*
X180219640Y-44028360D03*
X182319640Y-44028360D03*
X180219640Y-46568360D03*
X182319640Y-46568360D03*
D14*
X171383640Y-44536360D03*
X173883640Y-44536360D03*
X171383640Y-47076360D03*
X173883640Y-47076360D03*
X171383640Y-41996360D03*
X173883640Y-41996360D03*
D15*
X161723640Y-49616360D03*
X163223640Y-49616360D03*
X161723640Y-47076360D03*
X163223640Y-47076360D03*
X161723640Y-41996360D03*
X163223640Y-41996360D03*
X161723640Y-44536360D03*
X163223640Y-44536360D03*
D14*
X171383640Y-49616360D03*
X173883640Y-49616360D03*
D16*
X166603640Y-49616360D03*
X168503640Y-49616360D03*
X166603640Y-47076360D03*
X168503640Y-47076360D03*
X166603640Y-41996360D03*
X168503640Y-41996360D03*
X166603640Y-44536360D03*
X168503640Y-44536360D03*
D17*
X156043640Y-47076360D03*
X158743640Y-47076360D03*
X156043640Y-49616360D03*
X158743640Y-49616360D03*
X156043640Y-44536360D03*
X158743640Y-44536360D03*
X156043640Y-41996360D03*
X158743640Y-41996360D03*
D13*
X147199640Y-47076360D03*
X149299640Y-47076360D03*
X147199640Y-49616360D03*
X149299640Y-49616360D03*
X147199640Y-44536360D03*
X149299640Y-44536360D03*
D16*
X190184960Y-122494040D03*
X192084960Y-122494040D03*
D18*
X190586360Y-112461040D03*
X193126360Y-112461040D03*
X195666360Y-112461040D03*
D16*
X196438560Y-122316240D03*
X194538560Y-122316240D03*
D19*
X190405360Y-117464840D03*
X195285360Y-117464840D03*
D18*
X179085240Y-112097820D03*
D16*
X179570340Y-120822720D03*
X181470340Y-120822720D03*
D18*
X176545240Y-112097820D03*
X181625240Y-112097820D03*
D20*
X179478740Y-115312702D03*
X179478740Y-118212702D03*
X181778740Y-118212702D03*
X181778740Y-115312702D03*
D18*
X184165240Y-112097820D03*
X175054260Y-123388120D03*
D21*
X171564260Y-127359620D03*
X172514260Y-127359620D03*
X173464260Y-127359620D03*
D18*
X169974260Y-123388120D03*
X172514260Y-123388120D03*
X136235440Y-129082800D03*
X138775440Y-129082800D03*
X141315440Y-129082800D03*
D21*
X137825440Y-133054300D03*
X138775440Y-133054300D03*
X139725440Y-133054300D03*
D18*
X154368500Y-128762760D03*
D20*
X149682000Y-131977642D03*
X149682000Y-134877642D03*
X151982000Y-134877642D03*
X151982000Y-131977642D03*
D18*
X146748500Y-128762760D03*
X151828500Y-128762760D03*
D16*
X149773600Y-137487660D03*
X151673600Y-137487660D03*
D18*
X149288500Y-128762760D03*
X165798500Y-127492760D03*
D16*
X166570700Y-137347960D03*
X164670700Y-137347960D03*
D18*
X160718500Y-127492760D03*
D16*
X160317100Y-136000000D03*
X162217100Y-136000000D03*
D18*
X163258500Y-127492760D03*
D19*
X160537500Y-132496560D03*
X165417500Y-132496560D03*
D18*
X169887900Y-66347340D03*
X172430440Y-66347340D03*
X103632000Y-94234000D03*
X106117405Y-94234000D03*
X162560000Y-110490000D03*
X158750000Y-88900000D03*
X140970000Y-91440000D03*
X140970000Y-88900000D03*
X160020000Y-120650000D03*
X165100000Y-92710000D03*
D22*
X111197405Y-102831299D03*
X111197405Y-104111299D03*
D23*
X126437405Y-81561299D03*
X127717405Y-81561299D03*
D16*
X120073340Y-137525760D03*
X121973340Y-137525760D03*
X126326940Y-137347960D03*
X124426940Y-137347960D03*
X133583640Y-42504360D03*
X135483640Y-42504360D03*
X133583640Y-45044360D03*
X135483640Y-45044360D03*
X133583640Y-47584360D03*
X135483640Y-47584360D03*
X133583640Y-50124360D03*
X135483640Y-50124360D03*
D14*
X138363640Y-50124360D03*
X140863640Y-50124360D03*
X138363640Y-47584360D03*
X140863640Y-47584360D03*
X138363640Y-45044360D03*
X140863640Y-45044360D03*
X138363640Y-42504360D03*
X140863640Y-42504360D03*
D16*
X166319240Y-79260700D03*
X164419240Y-79260700D03*
D10*
G36*
X176529357Y-67965050D02*
X177342530Y-67151877D01*
X178473901Y-68283248D01*
X177660728Y-69096421D01*
X176529357Y-67965050D01*
X176529357Y-67965050D01*
G37*
G36*
X177872859Y-69308552D02*
X178686032Y-68495379D01*
X179817403Y-69626750D01*
X179004230Y-70439923D01*
X177872859Y-69308552D01*
X177872859Y-69308552D01*
G37*
D24*
X166491920Y-73964840D03*
X166491920Y-72064840D03*
D16*
X166385280Y-77246480D03*
X164485280Y-77246480D03*
X128337405Y-84101299D03*
X126437405Y-84101299D03*
D24*
X116277405Y-104421299D03*
X116277405Y-102521299D03*
X118817405Y-102521299D03*
X118817405Y-104421299D03*
X169011600Y-97094000D03*
X169011600Y-98994000D03*
D16*
X154917100Y-111810800D03*
X156817100Y-111810800D03*
X157660300Y-105740200D03*
X159560300Y-105740200D03*
D24*
X167868600Y-100904000D03*
X167868600Y-102804000D03*
D23*
X178160600Y-95996760D03*
X176880600Y-95996760D03*
X178160600Y-98536760D03*
X176880600Y-98536760D03*
D25*
X182600600Y-93456760D03*
X185140600Y-93456760D03*
X182600600Y-95996760D03*
X185140600Y-95996760D03*
X182600600Y-98536760D03*
X185140600Y-98536760D03*
X182600600Y-101076760D03*
X185140600Y-101076760D03*
X182600600Y-103616760D03*
X185140600Y-103616760D03*
D23*
X194670600Y-93456760D03*
X193390600Y-93456760D03*
X194670600Y-95996760D03*
X193390600Y-95996760D03*
X194670600Y-103616760D03*
X193390600Y-103616760D03*
D22*
X166423340Y-68762960D03*
X166423340Y-70042960D03*
D23*
X171391660Y-85237320D03*
X172671660Y-85237320D03*
D22*
X166037260Y-81150540D03*
X166037260Y-82430540D03*
D23*
X117505524Y-59521198D03*
X116225524Y-59521198D03*
X117505524Y-62061198D03*
X116225524Y-62061198D03*
D25*
X121730524Y-58441198D03*
X124270524Y-58441198D03*
X121730524Y-60981198D03*
X124270524Y-60981198D03*
X121730524Y-63521198D03*
X124270524Y-63521198D03*
X121730524Y-66061198D03*
X124270524Y-66061198D03*
X121730524Y-68601198D03*
X124270524Y-68601198D03*
D23*
X126437405Y-86641299D03*
X127717405Y-86641299D03*
X126437405Y-91721299D03*
X127717405Y-91721299D03*
D22*
X116277405Y-73616099D03*
X116277405Y-72336099D03*
D23*
X118797005Y-93346899D03*
X117517005Y-93346899D03*
X140267892Y-71017856D03*
X138987892Y-71017856D03*
X140267892Y-73557856D03*
X138987892Y-73557856D03*
D25*
X145977892Y-68477856D03*
X148517892Y-68477856D03*
X145977892Y-71017856D03*
X148517892Y-71017856D03*
X145977892Y-73557856D03*
X148517892Y-73557856D03*
X145977892Y-76097856D03*
X148517892Y-76097856D03*
X145977892Y-78637856D03*
X148517892Y-78637856D03*
D23*
X159317892Y-68477856D03*
X158037892Y-68477856D03*
X159317892Y-71017856D03*
X158037892Y-71017856D03*
X130738800Y-96621600D03*
X129458800Y-96621600D03*
X130738800Y-114401600D03*
X129458800Y-114401600D03*
D22*
X168046400Y-91343400D03*
X168046400Y-90063400D03*
X169621200Y-94518400D03*
X169621200Y-93238400D03*
D17*
X123023640Y-42504360D03*
X125723640Y-42504360D03*
X123023640Y-45044360D03*
X125723640Y-45044360D03*
X123023640Y-47584360D03*
X125723640Y-47584360D03*
X123023640Y-50124360D03*
X125723640Y-50124360D03*
D15*
X128703640Y-42504360D03*
X130203640Y-42504360D03*
X128703640Y-45044360D03*
X130203640Y-45044360D03*
X128703640Y-47584360D03*
X130203640Y-47584360D03*
X128703640Y-50124360D03*
X130203640Y-50124360D03*
D26*
X179764190Y-71878590D03*
X179764190Y-72378590D03*
X179764190Y-72878590D03*
X179764190Y-73378590D03*
X179764190Y-73878590D03*
X179764190Y-74378590D03*
X179764190Y-74878590D03*
X179764190Y-75378590D03*
X179764190Y-75878590D03*
X179764190Y-76378590D03*
X179764190Y-76878590D03*
X179764190Y-77378590D03*
D27*
X180414190Y-78028590D03*
X180914190Y-78028590D03*
X181414190Y-78028590D03*
X181914190Y-78028590D03*
X182414190Y-78028590D03*
X182914190Y-78028590D03*
X183414190Y-78028590D03*
X183914190Y-78028590D03*
X184414190Y-78028590D03*
X184914190Y-78028590D03*
X185414190Y-78028590D03*
X185914190Y-78028590D03*
D26*
X186564190Y-77378590D03*
X186564190Y-76878590D03*
X186564190Y-76378590D03*
X186564190Y-75878590D03*
X186564190Y-75378590D03*
X186564190Y-74878590D03*
X186564190Y-74378590D03*
X186564190Y-73878590D03*
X186564190Y-73378590D03*
X186564190Y-72878590D03*
X186564190Y-72378590D03*
X186564190Y-71878590D03*
D27*
X185914190Y-71228590D03*
X185414190Y-71228590D03*
X184914190Y-71228590D03*
X184414190Y-71228590D03*
X183914190Y-71228590D03*
X183414190Y-71228590D03*
X182914190Y-71228590D03*
X182414190Y-71228590D03*
X181914190Y-71228590D03*
X181414190Y-71228590D03*
X180914190Y-71228590D03*
X180414190Y-71228590D03*
D28*
X185095440Y-76559840D03*
X185095440Y-75272340D03*
X185095440Y-73984840D03*
X185095440Y-72697340D03*
X183807940Y-76559840D03*
X183807940Y-75272340D03*
X183807940Y-73984840D03*
X183807940Y-72697340D03*
X182520440Y-76559840D03*
X182520440Y-75272340D03*
X182520440Y-73984840D03*
X182520440Y-72697340D03*
X181232940Y-76559840D03*
X181232940Y-75272340D03*
X181232940Y-73984840D03*
X181232940Y-72697340D03*
D27*
X113489905Y-90671298D03*
X113989905Y-90671298D03*
X114489905Y-90671298D03*
X114989905Y-90671298D03*
X115489905Y-90671298D03*
X115989905Y-90671298D03*
X116489905Y-90671298D03*
X116989905Y-90671298D03*
D26*
X117639905Y-90021298D03*
X117639905Y-89521298D03*
X117639905Y-89021298D03*
X117639905Y-88521298D03*
X117639905Y-88021298D03*
X117639905Y-87521298D03*
X117639905Y-87021298D03*
X117639905Y-86521298D03*
D27*
X116989905Y-85871298D03*
X116489905Y-85871298D03*
X115989905Y-85871298D03*
X115489905Y-85871298D03*
X114989905Y-85871298D03*
X114489905Y-85871298D03*
X113989905Y-85871298D03*
X113489905Y-85871298D03*
D26*
X112839905Y-86521298D03*
X112839905Y-87021298D03*
X112839905Y-87521298D03*
X112839905Y-88021298D03*
X112839905Y-88521298D03*
X112839905Y-89021298D03*
X112839905Y-89521298D03*
X112839905Y-90021298D03*
D29*
X116102405Y-87408798D03*
X114377405Y-87408798D03*
X116102405Y-89133798D03*
X114377405Y-89133798D03*
D30*
X153020000Y-110430000D03*
X153020000Y-109930000D03*
X153020000Y-109430000D03*
X153020000Y-108930000D03*
X153020000Y-108430000D03*
X153020000Y-107930000D03*
X153020000Y-107430000D03*
X153020000Y-106930000D03*
X153020000Y-106430000D03*
X153020000Y-105930000D03*
X153020000Y-105430000D03*
X153020000Y-104930000D03*
X153020000Y-104430000D03*
X153020000Y-103930000D03*
X153020000Y-103430000D03*
X153020000Y-102930000D03*
D31*
X151070000Y-100980000D03*
X150570000Y-100980000D03*
X150070000Y-100980000D03*
X149570000Y-100980000D03*
X149070000Y-100980000D03*
X148570000Y-100980000D03*
X148070000Y-100980000D03*
X147570000Y-100980000D03*
X147070000Y-100980000D03*
X146570000Y-100980000D03*
X146070000Y-100980000D03*
X145570000Y-100980000D03*
X145070000Y-100980000D03*
X144570000Y-100980000D03*
X144070000Y-100980000D03*
X143570000Y-100980000D03*
D30*
X141620000Y-102930000D03*
X141620000Y-103430000D03*
X141620000Y-103930000D03*
X141620000Y-104430000D03*
X141620000Y-104930000D03*
X141620000Y-105430000D03*
X141620000Y-105930000D03*
X141620000Y-106430000D03*
X141620000Y-106930000D03*
X141620000Y-107430000D03*
X141620000Y-107930000D03*
X141620000Y-108430000D03*
X141620000Y-108930000D03*
X141620000Y-109430000D03*
X141620000Y-109930000D03*
X141620000Y-110430000D03*
D31*
X143570000Y-112380000D03*
X144070000Y-112380000D03*
X144570000Y-112380000D03*
X145070000Y-112380000D03*
X145570000Y-112380000D03*
X146070000Y-112380000D03*
X146570000Y-112380000D03*
X147070000Y-112380000D03*
X147570000Y-112380000D03*
X148070000Y-112380000D03*
X148570000Y-112380000D03*
X149070000Y-112380000D03*
X149570000Y-112380000D03*
X150070000Y-112380000D03*
X150570000Y-112380000D03*
X151070000Y-112380000D03*
D21*
X106077980Y-113818880D03*
X107027980Y-113818880D03*
X107977980Y-113818880D03*
D20*
X114088980Y-117547902D03*
X114088980Y-120447902D03*
X116388980Y-120447902D03*
X116388980Y-117547902D03*
D19*
X120293740Y-132496560D03*
X125173740Y-132496560D03*
D18*
X109567980Y-109847380D03*
X104487980Y-109847380D03*
X113695480Y-114333020D03*
X111155480Y-114333020D03*
X120474740Y-127492760D03*
X125554740Y-127492760D03*
X116235480Y-114333020D03*
X123014740Y-127492760D03*
X107027980Y-109847380D03*
X190220600Y-98536760D03*
X190220600Y-101076760D03*
X190220600Y-95996760D03*
X190220600Y-103616760D03*
X190220600Y-93456760D03*
X173710600Y-94726760D03*
X173710600Y-99806760D03*
X173710600Y-102346760D03*
X172430440Y-81587340D03*
X172430440Y-71427340D03*
X169890440Y-81587340D03*
X169890440Y-76507340D03*
X172430440Y-76507340D03*
X181320440Y-82857340D03*
X193680080Y-69618580D03*
X181320440Y-85397340D03*
X196220080Y-69601080D03*
X183860440Y-82857340D03*
X193680080Y-67078580D03*
X183860440Y-85397340D03*
X196220080Y-67061080D03*
X186400440Y-82857340D03*
X190492380Y-61366400D03*
X190492380Y-58826400D03*
X187952380Y-61366400D03*
X187952380Y-58826400D03*
X188940440Y-85397340D03*
X193680080Y-79761080D03*
X196220080Y-79761080D03*
X193680080Y-77221080D03*
X196220080Y-77221080D03*
X185412380Y-61366400D03*
X193680080Y-74698580D03*
X185412380Y-58826400D03*
X196220080Y-74698580D03*
X182872380Y-61366400D03*
X193680080Y-72141080D03*
X182872380Y-58826400D03*
X196220080Y-72141080D03*
X180332380Y-61366400D03*
X180332380Y-58826400D03*
X177792380Y-61366400D03*
X177792380Y-58826400D03*
X169890440Y-68887340D03*
X172430440Y-68887340D03*
X169890440Y-73967340D03*
X172430440Y-73967340D03*
X178745440Y-82857340D03*
X178745440Y-85397340D03*
X176240440Y-82857340D03*
X176240440Y-85397340D03*
X169890440Y-71427340D03*
X196220080Y-82301080D03*
X188905440Y-82857340D03*
X172430440Y-79047340D03*
X169890440Y-79047340D03*
X130200524Y-63331198D03*
X130200524Y-65871198D03*
X130200524Y-60791198D03*
X130200524Y-68411198D03*
X130200524Y-58251198D03*
X116277405Y-99341299D03*
X123897405Y-84101299D03*
X116277405Y-96801299D03*
X112420524Y-59521198D03*
X112420524Y-64601198D03*
X112420524Y-67141198D03*
X112420524Y-62061198D03*
X121357405Y-91721299D03*
X123897405Y-89181299D03*
X113737405Y-79021299D03*
X121357405Y-89181299D03*
X111197405Y-76481299D03*
X123897405Y-86641299D03*
X111197405Y-79021299D03*
X121357405Y-86641299D03*
X103577405Y-84101299D03*
X106117405Y-86641299D03*
X103577405Y-86641299D03*
X106117405Y-89181299D03*
X118817405Y-76481299D03*
X118817405Y-79021299D03*
X116277405Y-76481299D03*
X116277405Y-79021299D03*
X113737405Y-76481299D03*
X103577405Y-89181299D03*
X106117405Y-91721299D03*
X103577405Y-91721299D03*
X111197405Y-96801299D03*
X113737405Y-99341299D03*
X108657405Y-96801299D03*
X123897405Y-91721299D03*
X113737405Y-96801299D03*
X106117405Y-84101299D03*
X111197405Y-99341299D03*
X121357405Y-94261299D03*
X154867892Y-73557856D03*
X154867892Y-76097856D03*
X154867892Y-71017856D03*
X154867892Y-78637856D03*
X154867892Y-68477856D03*
X135817892Y-69747856D03*
X135817892Y-74827856D03*
X135817892Y-77367856D03*
X160020000Y-118110000D03*
X162560000Y-105410000D03*
X135890000Y-114300000D03*
X165100000Y-97790000D03*
X162560000Y-97790000D03*
X151130000Y-88900000D03*
X133350000Y-109220000D03*
X151130000Y-91440000D03*
X135890000Y-109220000D03*
X148590000Y-88900000D03*
X133350000Y-111760000D03*
X148590000Y-91440000D03*
X135890000Y-111760000D03*
X146050000Y-88900000D03*
X139700000Y-118110000D03*
X146050000Y-91440000D03*
X139700000Y-120650000D03*
X143510000Y-88900000D03*
X142240000Y-118110000D03*
X143510000Y-91440000D03*
X142240000Y-120650000D03*
X138430000Y-91440000D03*
X144780000Y-118110000D03*
X133350000Y-96520000D03*
X144780000Y-120650000D03*
X135890000Y-96520000D03*
X147320000Y-118110000D03*
X147320000Y-120650000D03*
X133350000Y-99060000D03*
X135890000Y-99060000D03*
X149860000Y-118110000D03*
X133350000Y-101600000D03*
X149860000Y-120650000D03*
X135890000Y-101600000D03*
X152400000Y-118110000D03*
X133350000Y-104140000D03*
X152400000Y-120650000D03*
X135890000Y-104140000D03*
X154940000Y-118110000D03*
X133350000Y-106680000D03*
X154940000Y-120650000D03*
X135890000Y-106680000D03*
X157480000Y-118110000D03*
X157480000Y-120650000D03*
X165100000Y-107950000D03*
X162560000Y-107950000D03*
X165100000Y-113030000D03*
X162560000Y-113030000D03*
X165100000Y-102870000D03*
X162560000Y-102870000D03*
X165100000Y-100330000D03*
X162560000Y-100330000D03*
X153670000Y-88900000D03*
X153670000Y-91440000D03*
X158750000Y-91440000D03*
X156210000Y-88900000D03*
X165100000Y-105410000D03*
X156210000Y-91440000D03*
X133350000Y-114300000D03*
X162560000Y-95250000D03*
X165100000Y-95250000D03*
X173710600Y-97266760D03*
X175252380Y-61366400D03*
X193680080Y-64538580D03*
X191480440Y-82857340D03*
X175252380Y-58826400D03*
X186400440Y-85397340D03*
X191445440Y-85397340D03*
X196220080Y-64538580D03*
X121357405Y-81561299D03*
X118817405Y-96801299D03*
X106117405Y-96774000D03*
X108657405Y-79021299D03*
X103632000Y-96774000D03*
X108657405Y-76481299D03*
X118817405Y-99341299D03*
X123897405Y-81561299D03*
X135817892Y-72287856D03*
X162560000Y-92710000D03*
X135890000Y-91440000D03*
X135890000Y-116840000D03*
X165100000Y-110490000D03*
X138430000Y-88900000D03*
X135890000Y-88900000D03*
X133350000Y-116840000D03*
X121357405Y-84101299D03*
X118775480Y-114333020D03*
D16*
X114180580Y-123057920D03*
X116080580Y-123057920D03*
D12*
X107002580Y-47000160D03*
D11*
X102000000Y-120000000D03*
M02*
