G04 #@! TF.FileFunction,Soldermask,Bot*
%FSLAX46Y46*%
G04 Gerber Fmt 4.6, Leading zero omitted, Abs format (unit mm)*
G04 Created by KiCad (PCBNEW 4.0.7-e2-6376~58~ubuntu16.04.1) date Sun Apr 22 16:59:19 2018*
%MOMM*%
%LPD*%
G01*
G04 APERTURE LIST*
%ADD10C,0.100000*%
%ADD11C,0.500000*%
%ADD12C,1.500000*%
%ADD13C,1.000000*%
%ADD14C,2.000000*%
%ADD15C,3.000000*%
%ADD16C,7.900000*%
%ADD17C,2.200000*%
%ADD18C,1.900000*%
%ADD19C,2.440000*%
%ADD20R,1.670000X1.370000*%
%ADD21R,1.370000X1.670000*%
G04 APERTURE END LIST*
D10*
D11*
X187714285Y-46357143D02*
X187714285Y-43357143D01*
X186714285Y-45500000D01*
X185714285Y-43357143D01*
X185714285Y-46357143D01*
X184285714Y-46357143D02*
X184285714Y-43357143D01*
X182571429Y-46357143D02*
X183857143Y-44642857D01*
X182571429Y-43357143D02*
X184285714Y-45071429D01*
X179857143Y-46357143D02*
X181285714Y-46357143D01*
X181285714Y-43357143D01*
X179000000Y-43642857D02*
X178857143Y-43500000D01*
X178571429Y-43357143D01*
X177857143Y-43357143D01*
X177571429Y-43500000D01*
X177428572Y-43642857D01*
X177285715Y-43928571D01*
X177285715Y-44214286D01*
X177428572Y-44642857D01*
X179142858Y-46357143D01*
X177285715Y-46357143D01*
X175571429Y-44642857D02*
X175857143Y-44500000D01*
X176000000Y-44357143D01*
X176142857Y-44071429D01*
X176142857Y-43928571D01*
X176000000Y-43642857D01*
X175857143Y-43500000D01*
X175571429Y-43357143D01*
X175000000Y-43357143D01*
X174714286Y-43500000D01*
X174571429Y-43642857D01*
X174428572Y-43928571D01*
X174428572Y-44071429D01*
X174571429Y-44357143D01*
X174714286Y-44500000D01*
X175000000Y-44642857D01*
X175571429Y-44642857D01*
X175857143Y-44785714D01*
X176000000Y-44928571D01*
X176142857Y-45214286D01*
X176142857Y-45785714D01*
X176000000Y-46071429D01*
X175857143Y-46214286D01*
X175571429Y-46357143D01*
X175000000Y-46357143D01*
X174714286Y-46214286D01*
X174571429Y-46071429D01*
X174428572Y-45785714D01*
X174428572Y-45214286D01*
X174571429Y-44928571D01*
X174714286Y-44785714D01*
X175000000Y-44642857D01*
X173428572Y-43357143D02*
X171428572Y-43357143D01*
X173428572Y-46357143D01*
X171428572Y-46357143D01*
X167000000Y-44785714D02*
X168000000Y-44785714D01*
X168000000Y-46357143D02*
X168000000Y-43357143D01*
X166571429Y-43357143D01*
X165571428Y-45500000D02*
X164142857Y-45500000D01*
X165857143Y-46357143D02*
X164857143Y-43357143D01*
X163857143Y-46357143D01*
X162857142Y-46357143D02*
X162857142Y-43357143D01*
X161857142Y-45500000D01*
X160857142Y-43357143D01*
X160857142Y-46357143D01*
X159428571Y-46357143D02*
X159428571Y-43357143D01*
X156571429Y-46357143D02*
X158000000Y-46357143D01*
X158000000Y-43357143D01*
X155000001Y-44928571D02*
X155000001Y-46357143D01*
X156000001Y-43357143D02*
X155000001Y-44928571D01*
X154000001Y-43357143D01*
X149714286Y-44785714D02*
X149285715Y-44928571D01*
X149142858Y-45071429D01*
X149000001Y-45357143D01*
X149000001Y-45785714D01*
X149142858Y-46071429D01*
X149285715Y-46214286D01*
X149571429Y-46357143D01*
X150714286Y-46357143D01*
X150714286Y-43357143D01*
X149714286Y-43357143D01*
X149428572Y-43500000D01*
X149285715Y-43642857D01*
X149142858Y-43928571D01*
X149142858Y-44214286D01*
X149285715Y-44500000D01*
X149428572Y-44642857D01*
X149714286Y-44785714D01*
X150714286Y-44785714D01*
X146000001Y-46357143D02*
X147000001Y-44928571D01*
X147714286Y-46357143D02*
X147714286Y-43357143D01*
X146571429Y-43357143D01*
X146285715Y-43500000D01*
X146142858Y-43642857D01*
X146000001Y-43928571D01*
X146000001Y-44357143D01*
X146142858Y-44642857D01*
X146285715Y-44785714D01*
X146571429Y-44928571D01*
X147714286Y-44928571D01*
X144714286Y-44785714D02*
X143714286Y-44785714D01*
X143285715Y-46357143D02*
X144714286Y-46357143D01*
X144714286Y-43357143D01*
X143285715Y-43357143D01*
X142142857Y-45500000D02*
X140714286Y-45500000D01*
X142428572Y-46357143D02*
X141428572Y-43357143D01*
X140428572Y-46357143D01*
X139428571Y-46357143D02*
X139428571Y-43357143D01*
X137714286Y-46357143D02*
X139000000Y-44642857D01*
X137714286Y-43357143D02*
X139428571Y-45071429D01*
X135857143Y-43357143D02*
X135285714Y-43357143D01*
X135000000Y-43500000D01*
X134714286Y-43785714D01*
X134571428Y-44357143D01*
X134571428Y-45357143D01*
X134714286Y-45928571D01*
X135000000Y-46214286D01*
X135285714Y-46357143D01*
X135857143Y-46357143D01*
X136142857Y-46214286D01*
X136428571Y-45928571D01*
X136571428Y-45357143D01*
X136571428Y-44357143D01*
X136428571Y-43785714D01*
X136142857Y-43500000D01*
X135857143Y-43357143D01*
X133285714Y-43357143D02*
X133285714Y-45785714D01*
X133142857Y-46071429D01*
X133000000Y-46214286D01*
X132714286Y-46357143D01*
X132142857Y-46357143D01*
X131857143Y-46214286D01*
X131714286Y-46071429D01*
X131571429Y-45785714D01*
X131571429Y-43357143D01*
X130571429Y-43357143D02*
X128857143Y-43357143D01*
X129714286Y-46357143D02*
X129714286Y-43357143D01*
X124571429Y-44785714D02*
X124142858Y-44928571D01*
X124000001Y-45071429D01*
X123857144Y-45357143D01*
X123857144Y-45785714D01*
X124000001Y-46071429D01*
X124142858Y-46214286D01*
X124428572Y-46357143D01*
X125571429Y-46357143D01*
X125571429Y-43357143D01*
X124571429Y-43357143D01*
X124285715Y-43500000D01*
X124142858Y-43642857D01*
X124000001Y-43928571D01*
X124000001Y-44214286D01*
X124142858Y-44500000D01*
X124285715Y-44642857D01*
X124571429Y-44785714D01*
X125571429Y-44785714D01*
X122000001Y-43357143D02*
X121428572Y-43357143D01*
X121142858Y-43500000D01*
X120857144Y-43785714D01*
X120714286Y-44357143D01*
X120714286Y-45357143D01*
X120857144Y-45928571D01*
X121142858Y-46214286D01*
X121428572Y-46357143D01*
X122000001Y-46357143D01*
X122285715Y-46214286D01*
X122571429Y-45928571D01*
X122714286Y-45357143D01*
X122714286Y-44357143D01*
X122571429Y-43785714D01*
X122285715Y-43500000D01*
X122000001Y-43357143D01*
X119571429Y-45500000D02*
X118142858Y-45500000D01*
X119857144Y-46357143D02*
X118857144Y-43357143D01*
X117857144Y-46357143D01*
X115142858Y-46357143D02*
X116142858Y-44928571D01*
X116857143Y-46357143D02*
X116857143Y-43357143D01*
X115714286Y-43357143D01*
X115428572Y-43500000D01*
X115285715Y-43642857D01*
X115142858Y-43928571D01*
X115142858Y-44357143D01*
X115285715Y-44642857D01*
X115428572Y-44785714D01*
X115714286Y-44928571D01*
X116857143Y-44928571D01*
X113857143Y-46357143D02*
X113857143Y-43357143D01*
X113142858Y-43357143D01*
X112714286Y-43500000D01*
X112428572Y-43785714D01*
X112285715Y-44071429D01*
X112142858Y-44642857D01*
X112142858Y-45071429D01*
X112285715Y-45642857D01*
X112428572Y-45928571D01*
X112714286Y-46214286D01*
X113142858Y-46357143D01*
X113857143Y-46357143D01*
D12*
X171000000Y-131000000D02*
X171000000Y-136000000D01*
D13*
X171000000Y-117000000D02*
X172000000Y-120000000D01*
D12*
X163000000Y-67000000D02*
X163000000Y-71000000D01*
X134000000Y-58000000D02*
X134000000Y-62000000D01*
D14*
X126000000Y-107000000D02*
X126000000Y-120000000D01*
D15*
X198000000Y-104000000D03*
X160000000Y-138000000D03*
X102000000Y-116000000D03*
X198000000Y-108000000D03*
X156000000Y-138000000D03*
D16*
X192989200Y-132999480D03*
X107015280Y-132999480D03*
X192996820Y-46992540D03*
D17*
X190586360Y-112461040D03*
X193126360Y-112461040D03*
X195666360Y-112461040D03*
D18*
X190405360Y-117464840D03*
X195285360Y-117464840D03*
D17*
X179085240Y-112097820D03*
X176545240Y-112097820D03*
X181625240Y-112097820D03*
X184165240Y-112097820D03*
X175054260Y-123388120D03*
X169974260Y-123388120D03*
X172514260Y-123388120D03*
X136235440Y-129082800D03*
X138775440Y-129082800D03*
X141315440Y-129082800D03*
X154368500Y-128762760D03*
X146748500Y-128762760D03*
X151828500Y-128762760D03*
X149288500Y-128762760D03*
X165798500Y-127492760D03*
X160718500Y-127492760D03*
X163258500Y-127492760D03*
D18*
X160537500Y-132496560D03*
X165417500Y-132496560D03*
D17*
X169887900Y-66347340D03*
X172430440Y-66347340D03*
X103632000Y-94234000D03*
X106117405Y-94234000D03*
X162560000Y-110490000D03*
X158750000Y-88900000D03*
X140970000Y-91440000D03*
X140970000Y-88900000D03*
X160020000Y-120650000D03*
X165100000Y-92710000D03*
D19*
X182600600Y-93456760D03*
X185140600Y-93456760D03*
X182600600Y-95996760D03*
X185140600Y-95996760D03*
X182600600Y-98536760D03*
X185140600Y-98536760D03*
X182600600Y-101076760D03*
X185140600Y-101076760D03*
X182600600Y-103616760D03*
X185140600Y-103616760D03*
D20*
X182435500Y-73954480D03*
X182435500Y-72674480D03*
D19*
X121730524Y-58441198D03*
X124270524Y-58441198D03*
X121730524Y-60981198D03*
X124270524Y-60981198D03*
X121730524Y-63521198D03*
X124270524Y-63521198D03*
X121730524Y-66061198D03*
X124270524Y-66061198D03*
X121730524Y-68601198D03*
X124270524Y-68601198D03*
D21*
X114377405Y-89133798D03*
X113097405Y-89133798D03*
D19*
X145977892Y-68477856D03*
X148517892Y-68477856D03*
X145977892Y-71017856D03*
X148517892Y-71017856D03*
X145977892Y-73557856D03*
X148517892Y-73557856D03*
X145977892Y-76097856D03*
X148517892Y-76097856D03*
X145977892Y-78637856D03*
X148517892Y-78637856D03*
D18*
X120293740Y-132496560D03*
X125173740Y-132496560D03*
D17*
X109567980Y-109847380D03*
X104487980Y-109847380D03*
X113695480Y-114333020D03*
X111155480Y-114333020D03*
X120474740Y-127492760D03*
X125554740Y-127492760D03*
X116235480Y-114333020D03*
X123014740Y-127492760D03*
X107027980Y-109847380D03*
X190220600Y-98536760D03*
X190220600Y-101076760D03*
X190220600Y-95996760D03*
X190220600Y-103616760D03*
X190220600Y-93456760D03*
X173710600Y-94726760D03*
X173710600Y-99806760D03*
X173710600Y-102346760D03*
X172430440Y-81587340D03*
X172430440Y-71427340D03*
X169890440Y-81587340D03*
X169890440Y-76507340D03*
X172430440Y-76507340D03*
X181320440Y-82857340D03*
X193680080Y-69618580D03*
X181320440Y-85397340D03*
X196220080Y-69601080D03*
X183860440Y-82857340D03*
X193680080Y-67078580D03*
X183860440Y-85397340D03*
X196220080Y-67061080D03*
X186400440Y-82857340D03*
X190492380Y-61366400D03*
X190492380Y-58826400D03*
X187952380Y-61366400D03*
X187952380Y-58826400D03*
X188940440Y-85397340D03*
X193680080Y-79761080D03*
X196220080Y-79761080D03*
X193680080Y-77221080D03*
X196220080Y-77221080D03*
X185412380Y-61366400D03*
X193680080Y-74698580D03*
X185412380Y-58826400D03*
X196220080Y-74698580D03*
X182872380Y-61366400D03*
X193680080Y-72141080D03*
X182872380Y-58826400D03*
X196220080Y-72141080D03*
X180332380Y-61366400D03*
X180332380Y-58826400D03*
X177792380Y-61366400D03*
X177792380Y-58826400D03*
X169890440Y-68887340D03*
X172430440Y-68887340D03*
X169890440Y-73967340D03*
X172430440Y-73967340D03*
X178745440Y-82857340D03*
X178745440Y-85397340D03*
X176240440Y-82857340D03*
X176240440Y-85397340D03*
X169890440Y-71427340D03*
X196220080Y-82301080D03*
X188905440Y-82857340D03*
X172430440Y-79047340D03*
X169890440Y-79047340D03*
X130200524Y-63331198D03*
X130200524Y-65871198D03*
X130200524Y-60791198D03*
X130200524Y-68411198D03*
X130200524Y-58251198D03*
X116277405Y-99341299D03*
X123897405Y-84101299D03*
X116277405Y-96801299D03*
X112420524Y-59521198D03*
X112420524Y-64601198D03*
X112420524Y-67141198D03*
X112420524Y-62061198D03*
X121357405Y-91721299D03*
X123897405Y-89181299D03*
X113737405Y-79021299D03*
X121357405Y-89181299D03*
X111197405Y-76481299D03*
X123897405Y-86641299D03*
X111197405Y-79021299D03*
X121357405Y-86641299D03*
X103577405Y-84101299D03*
X106117405Y-86641299D03*
X103577405Y-86641299D03*
X106117405Y-89181299D03*
X118817405Y-76481299D03*
X118817405Y-79021299D03*
X116277405Y-76481299D03*
X116277405Y-79021299D03*
X113737405Y-76481299D03*
X103577405Y-89181299D03*
X106117405Y-91721299D03*
X103577405Y-91721299D03*
X111197405Y-96801299D03*
X113737405Y-99341299D03*
X108657405Y-96801299D03*
X123897405Y-91721299D03*
X113737405Y-96801299D03*
X106117405Y-84101299D03*
X111197405Y-99341299D03*
X121357405Y-94261299D03*
X154867892Y-73557856D03*
X154867892Y-76097856D03*
X154867892Y-71017856D03*
X154867892Y-78637856D03*
X154867892Y-68477856D03*
X135817892Y-69747856D03*
X135817892Y-74827856D03*
X135817892Y-77367856D03*
X160020000Y-118110000D03*
X162560000Y-105410000D03*
X135890000Y-114300000D03*
X165100000Y-97790000D03*
X162560000Y-97790000D03*
X151130000Y-88900000D03*
X133350000Y-109220000D03*
X151130000Y-91440000D03*
X135890000Y-109220000D03*
X148590000Y-88900000D03*
X133350000Y-111760000D03*
X148590000Y-91440000D03*
X135890000Y-111760000D03*
X146050000Y-88900000D03*
X139700000Y-118110000D03*
X146050000Y-91440000D03*
X139700000Y-120650000D03*
X143510000Y-88900000D03*
X142240000Y-118110000D03*
X143510000Y-91440000D03*
X142240000Y-120650000D03*
X138430000Y-91440000D03*
X144780000Y-118110000D03*
X133350000Y-96520000D03*
X144780000Y-120650000D03*
X135890000Y-96520000D03*
X147320000Y-118110000D03*
X147320000Y-120650000D03*
X133350000Y-99060000D03*
X135890000Y-99060000D03*
X149860000Y-118110000D03*
X133350000Y-101600000D03*
X149860000Y-120650000D03*
X135890000Y-101600000D03*
X152400000Y-118110000D03*
X133350000Y-104140000D03*
X152400000Y-120650000D03*
X135890000Y-104140000D03*
X154940000Y-118110000D03*
X133350000Y-106680000D03*
X154940000Y-120650000D03*
X135890000Y-106680000D03*
X157480000Y-118110000D03*
X157480000Y-120650000D03*
X165100000Y-107950000D03*
X162560000Y-107950000D03*
X165100000Y-113030000D03*
X162560000Y-113030000D03*
X165100000Y-102870000D03*
X162560000Y-102870000D03*
X165100000Y-100330000D03*
X162560000Y-100330000D03*
X153670000Y-88900000D03*
X153670000Y-91440000D03*
X158750000Y-91440000D03*
X156210000Y-88900000D03*
X165100000Y-105410000D03*
X156210000Y-91440000D03*
X133350000Y-114300000D03*
X162560000Y-95250000D03*
X165100000Y-95250000D03*
X173710600Y-97266760D03*
X175252380Y-61366400D03*
X193680080Y-64538580D03*
X191480440Y-82857340D03*
X175252380Y-58826400D03*
X186400440Y-85397340D03*
X191445440Y-85397340D03*
X196220080Y-64538580D03*
X121357405Y-81561299D03*
X118817405Y-96801299D03*
X106117405Y-96774000D03*
X108657405Y-79021299D03*
X103632000Y-96774000D03*
X108657405Y-76481299D03*
X118817405Y-99341299D03*
X123897405Y-81561299D03*
X135817892Y-72287856D03*
X162560000Y-92710000D03*
X135890000Y-91440000D03*
X135890000Y-116840000D03*
X165100000Y-110490000D03*
X138430000Y-88900000D03*
X135890000Y-88900000D03*
X133350000Y-116840000D03*
X121357405Y-84101299D03*
X118775480Y-114333020D03*
D16*
X107002580Y-47000160D03*
D15*
X102000000Y-120000000D03*
M02*
